<svg width="49" height="50" viewBox="0 0 49 50" fill="none" xmlns="http://www.w3.org/2000/svg">
  <path fillRule="evenodd" clipRule="evenodd"
    d="M10.8742 13.3174H4.30273V9.25391H13.9852L15.7699 15.8571H41.4446L38.343 28.2636C37.7777 30.5248 35.746 32.111 33.4153 32.111H19.8424C17.5475 32.111 15.5377 30.5723 14.9389 28.3569L10.8742 13.3174ZM16.8681 19.9206L18.8617 27.2967C18.9814 27.7398 19.3834 28.0476 19.8424 28.0476H33.4153C33.8814 28.0476 34.2878 27.7303 34.4008 27.2781L36.2402 19.9206H16.8681Z"
    fill="#24292E" />
  <path
    d="M23.6043 38.2063C23.6043 40.4505 21.785 42.2698 19.5408 42.2698C17.2966 42.2698 15.4773 40.4505 15.4773 38.2063C15.4773 35.9621 17.2966 34.1428 19.5408 34.1428C21.785 34.1428 23.6043 35.9621 23.6043 38.2063Z"
    fill="#24292E" />
  <path
    d="M33.7631 42.2698C36.0073 42.2698 37.8265 40.4505 37.8265 38.2063C37.8265 35.9621 36.0073 34.1428 33.7631 34.1428C31.5188 34.1428 29.6996 35.9621 29.6996 38.2063C29.6996 40.4505 31.5188 42.2698 33.7631 42.2698Z"
    fill="#24292E" />
</svg>