<svg width="247" height="64" viewBox="0 0 247 64" fill="none" xmlns="http://www.w3.org/2000/svg">
<path d="M4.80825 9.39523C5.1209 9.47025 5.14625 9.51194 5.1209 9.67867C4.63924 12.5631 3.91253 14.7556 2.58587 17.4233C2.49291 17.59 2.39151 17.615 2.12956 17.4983L1.35215 17.1648C0.963442 16.9981 0.963442 16.9064 1.03949 16.7563C2.46756 14.2304 3.16892 12.0379 3.59988 9.29519C3.62523 9.10345 3.65058 9.12846 4.03084 9.22016L4.80825 9.38689V9.39523ZM9.04176 17.7317C9.04176 18.4487 9.21076 18.8488 9.62481 19.0405C9.98817 19.2073 10.7571 19.299 12.2106 19.299C13.664 19.299 14.7202 19.1573 15.185 18.7738C15.861 18.2986 16.1061 17.6317 16.0807 14.4138C16.3934 14.6305 16.7821 14.7973 17.2384 14.939C17.5313 15.0335 17.6693 15.2252 17.6524 15.5142C17.5764 18.3486 17.2215 19.424 16.368 19.9742C15.4976 20.5911 14.2639 20.8079 12.143 20.8079C10.1403 20.8079 9.16851 20.6662 8.56855 20.3577C7.91789 20.0243 7.50384 19.5741 7.50384 18.1902V8.89504C7.50384 8.03638 7.47848 7.39447 7.36018 6.72755C7.94324 6.75256 8.51785 6.81925 8.9826 6.91929C9.22766 6.96931 9.32061 7.06101 9.32061 7.16105C9.32061 7.27776 9.26991 7.35279 9.20231 7.49451C9.10936 7.68624 9.05866 8.0864 9.05866 9.04509V17.7484L9.04176 17.7317ZM8.48405 0.933687C8.65305 0.675256 8.6784 0.650246 8.8474 0.716938C10.9937 1.50057 13.0725 2.45926 15.2272 3.93482C15.3709 4.02653 15.3709 4.07654 15.2019 4.34331L14.7709 5.11027C14.5512 5.44373 14.5259 5.46874 14.3569 5.35203C12.3965 3.90148 10.1487 2.70936 8.05309 1.96741C7.88409 1.89238 7.88409 1.8507 8.05309 1.55892L8.48405 0.942024V0.933687ZM18.7087 8.82001C18.9706 8.72831 19.0467 8.72831 19.165 8.89504C20.686 11.2543 21.7761 13.7135 22.4774 15.856C22.5535 16.0477 22.5281 16.1144 22.2155 16.2645L21.4212 16.648C21.0578 16.8147 21.0071 16.8397 20.9649 16.673C20.3142 14.3804 19.2495 11.8295 17.7285 9.54528C17.6355 9.40356 17.6524 9.26184 17.8975 9.1618L18.7171 8.82834L18.7087 8.82001Z" fill="#2C2C2C"/>
<path d="M39.9523 4.86017C39.5213 8.8867 38.2876 12.8465 36.7666 15.2808C35.7272 17.0231 34.6372 17.7401 33.2175 17.7401C31.4008 17.7401 29.6938 15.7893 29.6938 12.3297C29.6938 10.1372 30.7079 7.80296 32.4993 6.15233C34.2907 4.51004 36.7074 3.50966 39.7495 3.50966C45.166 3.50966 48.3771 6.63585 48.3771 11.1876C48.3771 15.0724 45.935 18.1986 40.6959 19.5074C40.4086 19.5824 40.2396 19.5324 40.0706 19.249C39.9269 19.0072 39.6143 18.6571 39.1242 18.3653C43.9069 17.4399 46.6617 14.889 46.6617 10.9041C46.6617 7.37779 43.8816 4.87685 40.4255 4.87685H39.9692L39.9523 4.86017ZM33.5471 7.15271C31.9247 8.72831 31.2233 10.679 31.2233 12.3047C31.2233 14.9056 32.3134 16.0227 33.1838 16.0227C34.0034 16.0227 34.7301 15.4975 35.4315 14.2804C36.6652 12.1379 37.9412 8.43653 38.2623 4.96021C36.3779 5.20197 34.7132 6.01061 33.5471 7.15271Z" fill="#2C2C2C"/>
<path d="M77.2173 20.5995C77.2173 20.7662 77.192 20.7912 77.0483 20.7912C76.9047 20.7912 76.178 20.7412 73.9302 20.7412H59.2186C56.9708 20.7412 56.2188 20.7912 56.1005 20.7912C55.9315 20.7912 55.9061 20.7662 55.9061 20.5995V19.5991C55.9061 19.4324 55.9315 19.4074 56.1005 19.4074C56.2188 19.4074 56.9708 19.4574 59.2186 19.4574H62.9366C62.6747 18.8155 62.4296 18.3403 62.117 17.8568C62.024 17.69 62.0409 17.64 62.3367 17.5483L63.038 17.3066C63.2831 17.2315 63.3 17.2565 63.4014 17.3983C63.7394 17.9235 64.0774 18.5904 64.4661 19.449H68.5221C68.8602 18.9238 69.0545 18.5904 69.1728 18.3319C69.3672 17.9235 69.4855 17.64 69.5615 17.2315C70.0685 17.3482 70.5079 17.49 70.8628 17.64C71.0065 17.69 71.0825 17.7567 71.0825 17.8568C71.0825 17.9568 71.0318 17.9985 70.9135 18.0985C70.7699 18.2152 70.6262 18.457 70.4826 18.6904C70.3896 18.8571 70.2206 19.1156 69.9756 19.4574H73.9387C76.1864 19.4574 76.9131 19.4074 77.0568 19.4074C77.2004 19.4074 77.2258 19.4324 77.2258 19.5991V20.5995H77.2173ZM76.9047 11.421C76.9047 11.5627 76.8793 11.5877 76.7103 11.5877C76.592 11.5877 75.84 11.5627 73.5246 11.5627H59.658C57.3342 11.5627 56.5906 11.5877 56.4723 11.5877C56.2779 11.5877 56.2526 11.5627 56.2526 11.421V10.4873C56.2526 10.2956 56.2779 10.2706 56.4723 10.2706C56.5906 10.2706 57.3426 10.3206 59.658 10.3206H73.5246C75.8484 10.3206 76.592 10.2706 76.7103 10.2706C76.8793 10.2706 76.9047 10.2956 76.9047 10.4873V11.421ZM74.6316 6.76923C74.6316 8.1781 74.6823 8.65328 74.6823 8.76999C74.6823 8.96173 74.6569 8.98674 74.4879 8.98674C74.3443 8.98674 73.4993 8.93672 71.0318 8.93672H62.0663C59.5988 8.93672 58.7285 8.98674 58.6102 8.98674C58.4412 8.98674 58.4158 8.96173 58.4158 8.76999C58.4158 8.65328 58.4665 8.1781 58.4665 6.76923V4.19326C58.4665 2.8094 58.4158 2.33422 58.4158 2.1925C58.4158 2.02577 58.4412 2.00076 58.6102 2.00076C58.7285 2.00076 59.5988 2.05078 62.0663 2.05078H63.3507V1.90906C63.3507 1.10042 63.3253 0.600227 63.207 0C63.7394 0.0250095 64.2464 0.0750284 64.6604 0.116711C64.8294 0.14172 64.9224 0.208412 64.9224 0.33346C64.9224 0.458507 64.897 0.525199 64.8294 0.64191C64.7365 0.80864 64.6858 1.06707 64.6858 1.80902V2.05078H68.2602V1.83403C68.2602 1.28382 68.2602 0.666919 68.1419 0C68.6742 0.0250095 69.1813 0.0750284 69.57 0.116711C69.739 0.14172 69.815 0.208412 69.815 0.33346C69.815 0.458507 69.7897 0.500189 69.7221 0.6169C69.6291 0.80864 69.6038 1.1421 69.6038 1.85904V2.05078H71.0572C73.5246 2.05078 74.3696 2.00076 74.5133 2.00076C74.6823 2.00076 74.7076 2.02577 74.7076 2.1925C74.7076 2.33422 74.6569 2.8094 74.6569 4.19326V6.76923H74.6316ZM63.3422 3.12618H59.7932V4.91019H63.3422V3.12618ZM63.3422 5.93558H59.7932V7.88632H63.3422V5.93558ZM73.1528 15.5642C73.1528 16.4979 73.2035 16.7814 73.2035 16.9231C73.2035 17.0898 73.1782 17.1148 73.0092 17.1148C72.8909 17.1148 72.0627 17.0648 69.7474 17.0648H63.3C60.9762 17.0648 60.1819 17.1148 60.0382 17.1148C59.8692 17.1148 59.8439 17.0898 59.8439 16.9231C59.8439 16.7814 59.8946 16.4979 59.8946 15.5642V14.3971C59.8946 13.4468 59.8439 13.18 59.8439 13.0383C59.8439 12.8715 59.8692 12.8465 60.0382 12.8465C60.1819 12.8465 60.9846 12.8966 63.3 12.8966H69.7474C72.0712 12.8966 72.8909 12.8465 73.0092 12.8465C73.1782 12.8465 73.2035 12.8715 73.2035 13.0383C73.2035 13.18 73.1528 13.4468 73.1528 14.3971V15.5642ZM71.7078 14.0136H61.3142V15.9644H71.7078V14.0136ZM68.2517 3.12618H64.6773V4.91019H68.2517V3.12618ZM68.2517 5.93558H64.6773V7.88632H68.2517V5.93558ZM73.2796 3.12618H69.5784V4.91019H73.2796V3.12618ZM73.2796 5.93558H69.5784V7.88632H73.2796V5.93558Z" fill="#2C2C2C"/>
<path d="M90.9488 3.60136C91.1431 2.76772 91.1938 2.16749 91.1685 1.30883C91.9205 1.50057 92.4275 1.6673 93.0528 1.95074C93.3148 2.06745 93.3908 2.35923 93.1458 2.56764C92.9514 2.75938 92.8585 2.95112 92.7317 3.35127C92.3684 4.51838 92.0557 5.64381 91.6924 6.81091C92.4698 6.71921 93.4585 6.64418 94.0331 6.64418C96.1371 6.64418 97.1765 7.69458 97.1765 10.479C97.1765 13.6218 96.6441 16.4646 95.8498 18.1819C95.2499 19.4907 94.2781 20.0659 93.0951 20.0659C92.1064 20.0659 91.2361 19.8992 90.6277 19.6408C90.4333 19.5657 90.3404 19.449 90.3404 19.2323C90.315 18.8238 90.2643 18.2986 90.053 17.7984C91.1178 18.2486 92.0135 18.4653 92.8585 18.4653C93.5599 18.4653 94.0162 18.2236 94.4809 17.2232C95.0809 15.8643 95.571 13.4551 95.571 10.5207C95.571 8.66161 95.2076 7.9947 93.9063 7.9947C93.1543 7.9947 92.1402 8.11141 91.2952 8.25313C89.8925 12.3797 88.3208 16.0978 86.3688 19.5324C86.2758 19.6991 86.1237 19.7241 85.9547 19.6491C85.7097 19.5324 85.2534 19.2239 84.9914 19.0072C84.8478 18.8905 84.8731 18.7654 84.9407 18.6237C86.9688 15.2641 88.3968 11.9712 89.5798 8.46988C88.5912 8.6116 87.6025 8.77833 86.3941 8.99507C85.9632 9.0701 85.5238 9.18681 85.3294 9.30352C85.0675 9.47025 84.8478 9.47025 84.7041 9.18681C84.5098 8.77833 84.3154 8.23645 84.1464 7.56953C85.0168 7.59454 85.9547 7.54452 86.6561 7.45282C87.9828 7.3111 88.9292 7.16938 90.0615 7.00265C90.3742 5.88556 90.6446 4.92687 90.9572 3.59303L90.9488 3.60136ZM99.8129 5.5521C99.9566 5.50208 100.058 5.52709 100.176 5.6438C101.866 7.07768 103.269 9.14513 104.063 11.4127C104.114 11.5794 104.139 11.6961 103.987 11.8211C103.742 12.0379 103.286 12.3213 102.999 12.4631C102.804 12.5798 102.635 12.5548 102.585 12.3213C101.765 9.88708 100.557 7.86131 98.7144 6.29405C99.0524 6.03562 99.4411 5.76885 99.8045 5.5521H99.8129Z" fill="#2C2C2C"/>
<path d="M117.406 3.02615C117.017 2.05078 116.823 1.69231 116.392 1.16711C117.144 1.0504 117.888 0.95036 118.302 0.95036C118.64 0.95036 118.809 1.09208 118.809 1.30883C118.809 1.45055 118.783 1.69231 118.834 1.92573C118.885 2.25919 119.003 2.8094 119.265 3.52634C119.527 4.24327 119.747 4.79348 120.059 5.52709C122.02 5.07692 123.997 4.52672 125.349 4.00152C125.493 3.9515 125.611 3.9515 125.687 4.11823C125.806 4.37666 125.932 4.78515 126 5.16862C126.025 5.33535 126 5.42706 125.882 5.47708C124.386 5.97726 122.62 6.45244 120.659 6.91095C121.53 8.76999 122.806 10.7291 124.673 12.7298C124.918 12.9716 125.104 13.1133 125.324 13.255C125.442 13.33 125.493 13.3967 125.493 13.4718C125.493 13.5635 125.468 13.6635 125.417 13.7302C125.248 14.0136 124.961 14.4471 124.792 14.6806C124.673 14.8223 124.572 14.9223 124.479 14.9223C124.386 14.9223 124.335 14.8723 124.192 14.7806C123.879 14.5639 123.608 14.4221 123.321 14.2554C121.868 13.5135 120.152 12.9716 117.837 12.9716C114.939 12.9716 113.342 13.997 113.342 15.6893C113.342 17.8818 116.341 18.7905 119.865 18.7905C121.099 18.7905 122.358 18.6988 123.347 18.507C123.296 19.0322 123.152 19.6991 123.034 20.0576C122.958 20.2243 122.916 20.2493 122.721 20.2994C122.282 20.3494 121.006 20.4161 119.941 20.4161C115.522 20.4161 111.795 19.0072 111.795 15.8143C111.795 13.0466 114.457 11.6628 117.786 11.6628C120.034 11.6628 121.606 12.1629 122.907 12.7382C121.31 11.0459 120.203 9.32853 119.189 7.22774C117.33 7.53619 115.665 7.70292 113.992 7.81963C113.266 7.86965 112.539 7.91133 111.939 7.89466C111.77 7.89466 111.719 7.80296 111.652 7.61122C111.559 7.32778 111.457 6.89428 111.39 6.36908C112.209 6.4191 112.961 6.4191 113.781 6.36908C115.184 6.29405 116.654 6.12732 118.513 5.81887C118.099 4.81849 117.837 4.15157 117.398 3.02615H117.406Z" fill="#2C2C2C"/>
<path d="M144.937 16.4479C144.937 16.6396 144.886 16.7063 144.675 16.7313C144.43 16.7814 143.948 16.823 143.635 16.823C143.492 16.823 143.416 16.7063 143.416 16.5396C143.416 15.4892 143.416 14.3221 143.441 13.105C140.779 14.4138 139.478 15.6309 139.478 17.0648C139.478 18.4987 140.804 19.0405 143.61 19.0405C145.613 19.0405 147.598 18.7988 149.364 18.5654C149.483 18.5404 149.584 18.5654 149.626 18.7321C149.702 19.0906 149.77 19.5657 149.77 19.8992C149.77 20.116 149.677 20.2077 149.576 20.2327C147.86 20.4494 145.875 20.5661 143.61 20.5661C140.23 20.5661 138.024 19.7075 138.024 17.1565C138.024 15.1557 139.351 13.5301 143.365 11.6044C143.314 9.98712 142.765 9.33687 141.337 9.36188C140.297 9.38689 138.92 9.97878 137.374 11.2959C136.503 12.1046 135.92 12.7298 135.075 13.6052C134.932 13.7719 134.83 13.7719 134.712 13.6552C134.467 13.4384 134.061 12.9883 133.867 12.7215C133.791 12.5798 133.774 12.5297 133.918 12.388C136.115 10.504 138.126 8.19477 139.52 5.76052C138.024 5.85222 136.546 5.85222 135.025 5.81053C134.83 5.81053 134.78 5.73551 134.763 5.56878C134.712 5.28534 134.644 4.76014 134.619 4.37666C136.385 4.46836 138.269 4.46836 140.221 4.35165C140.509 3.63471 140.847 2.85108 141.092 1.96741C141.21 1.55892 141.311 1.20045 141.286 0.683592C141.987 0.800303 142.689 1.01705 143.094 1.20879C143.34 1.3255 143.34 1.56726 143.145 1.73399C143.052 1.82569 142.9 1.99242 142.714 2.40091C142.427 2.9928 142.207 3.50133 141.895 4.20993C143.585 4.0432 145.325 3.78477 146.99 3.4263C147.184 3.37628 147.235 3.37628 147.277 3.518C147.328 3.85146 147.396 4.18492 147.421 4.5684C147.421 4.73513 147.37 4.81016 147.108 4.85184C145.199 5.1853 143.145 5.44373 141.21 5.63547C140.39 7.08602 139.613 8.21144 138.743 9.18681L138.768 9.23683C139.782 8.51989 140.847 8.21144 141.785 8.21144C143.576 8.21144 144.632 9.14513 144.827 11.0042C146.01 10.479 147.387 9.86207 148.595 9.28685C149.297 8.95339 149.922 8.56991 150.429 8.06972C150.987 8.5449 151.469 9.17014 151.612 9.45358C151.807 9.81205 151.612 9.95377 151.367 10.0038C151.08 10.0538 150.59 10.1705 150.04 10.3873C148.207 11.1542 146.686 11.6961 144.92 12.438V16.4396L144.937 16.4479Z" fill="#2C2C2C"/>
<path d="M157.696 16.2812C157.789 16.1895 157.891 16.1394 157.958 16.1394C158.026 16.1394 158.102 16.1895 158.22 16.2812C159.986 17.3816 161.457 18.7154 162.859 20.5745C162.952 20.7162 162.978 20.7912 162.978 20.8579C162.978 20.9496 162.952 21.0246 162.809 21.1413L161.938 21.8583C161.82 21.95 161.744 22 161.693 22C161.6 22 161.524 21.975 161.431 21.8083C160.172 20.0243 158.626 18.4487 156.986 17.3482C156.868 17.2732 156.817 17.2315 156.817 17.1815C156.817 17.1065 156.843 17.0648 156.936 16.9398L157.688 16.2728L157.696 16.2812Z" fill="#2C2C2C"/>
<path d="M177.757 15.8977C177.757 18.3319 179.058 19.1656 181.5 19.1656C184.111 19.1656 186.334 17.9985 186.334 15.4975C186.334 14.2304 185.92 13.0216 184.111 11.2293C184.694 11.2793 185.075 11.2042 185.607 11.1376C185.776 11.1125 185.894 11.1125 186.021 11.2126C187.5 12.6465 188.024 14.122 188.024 15.5309C188.024 18.7488 185.269 20.7078 181.762 20.7078C177.993 20.7078 176.227 19.0906 176.227 15.9394C176.227 15.0807 176.371 13.9886 176.472 12.9799C174.926 12.7882 173.794 12.5714 172.628 12.238C172.509 12.213 172.433 12.1463 172.408 11.9295C172.357 11.496 172.357 11.0208 172.383 10.5957C173.853 11.1209 175.061 11.3376 176.658 11.5044C176.878 10.0288 177.072 8.64494 177.216 7.4028C175.644 7.23607 174.343 7.04434 173.109 6.63585C172.94 6.58583 172.915 6.56082 172.89 6.3274C172.864 5.96893 172.839 5.46874 172.839 4.99356C174.385 5.54377 175.906 5.76052 177.478 5.92725C177.672 4.64343 177.74 4.06821 177.841 3.04282C177.934 2.35089 177.96 1.68397 177.867 1.01705C178.568 1.13376 179.337 1.40053 179.751 1.59227C179.971 1.68397 180.114 1.83403 180.114 1.97575C180.114 2.09246 180.038 2.1925 179.945 2.30921C179.751 2.52596 179.633 2.78439 179.514 3.4263C179.345 4.35999 179.227 5.04358 179.084 6.05229C180.148 6.12732 181.382 6.10231 182.464 6.00227C182.557 6.00227 182.607 6.05229 182.607 6.19401C182.607 6.55248 182.607 6.96097 182.582 7.29443C182.582 7.48617 182.489 7.53619 182.337 7.53619C181.204 7.61122 179.844 7.61122 178.813 7.5612C178.619 8.72831 178.399 10.1872 178.188 11.6377C179.54 11.6878 180.824 11.7128 182.1 11.5877C182.32 11.5627 182.388 11.6127 182.388 11.7545C182.388 12.0129 182.362 12.5214 182.337 12.8049C182.311 13.0216 182.244 13.0633 182.117 13.0633C180.858 13.155 179.337 13.1383 177.985 13.0883C177.892 14.0387 177.74 15.1891 177.74 15.9227L177.757 15.8977Z" fill="#2C2C2C"/>
<path d="M199.212 10.0121C201.823 9.2285 203.876 8.65328 205.735 8.65328C208.735 8.65328 210.763 10.4873 210.763 13.305C210.763 15.5976 209.749 17.0731 207.577 18.2402C206.251 18.9572 204.603 19.5074 202.575 19.8408C202.304 19.8909 202.212 19.8158 202.093 19.5991C201.975 19.3573 201.637 18.9322 201.172 18.5987C203.471 18.2903 205.228 17.7901 206.707 17.0231C208.279 16.2145 209.124 15.0724 209.124 13.205C209.124 11.0875 207.696 10.0371 205.549 10.0371C203.758 10.0371 201.155 10.8458 198.417 11.9462C197.817 12.188 197.496 12.3964 197.285 12.5381C197.116 12.6298 196.947 12.7548 196.829 12.7548C196.685 12.7548 196.541 12.6631 196.398 12.4964C196.085 12.0879 195.773 11.446 195.527 10.9208C196.474 10.8041 197.319 10.5873 199.229 10.0121H199.212Z" fill="#2C2C2C"/>
<path d="M223.404 1.45055C223.599 1.50057 223.692 1.64229 223.692 1.759C223.692 2.00076 223.573 2.20917 223.573 2.59265C223.599 3.11785 223.641 3.59303 223.717 4.11823C223.937 5.83554 224.224 7.42781 224.663 8.93672C226.092 8.24479 227.536 7.57787 228.965 6.79424C229.742 6.36074 230.029 6.12732 230.367 5.69382C230.849 6.14399 231.288 6.6025 231.601 7.02766C231.795 7.3111 231.745 7.64456 231.314 7.69458C230.714 7.78628 229.911 8.11974 229.184 8.46154C227.418 9.27018 225.339 10.2455 223.7 11.1792C221.258 12.5881 220.126 13.8219 220.126 15.4975C220.126 17.615 222.154 18.1402 225.804 18.1235C228.052 18.0985 230.224 17.8818 232.015 17.6233C232.235 17.5983 232.302 17.6484 232.353 17.8401C232.429 18.2236 232.471 18.6737 232.497 19.0822C232.522 19.299 232.429 19.3907 232.159 19.4157C230.181 19.6324 228.441 19.7491 225.728 19.7491C221.545 19.7491 218.529 18.8405 218.529 15.5809C218.529 13.2884 220.168 11.5294 223.244 9.69534C222.711 7.928 222.204 5.47708 221.959 3.59303C221.816 2.49261 221.697 1.90072 221.427 1.25881C222.154 1.28382 222.897 1.35051 223.404 1.47556V1.45055Z" fill="#2C2C2C"/>
<path d="M246 18.6654C246 20.4994 244.454 21.975 242.595 21.975C240.736 21.975 239.189 20.4994 239.189 18.6654C239.189 16.8314 240.736 15.3558 242.595 15.3558C244.454 15.3558 246 16.8314 246 18.6654ZM240.448 18.6654C240.448 19.8325 241.412 20.7829 242.595 20.7829C243.778 20.7829 244.741 19.8325 244.741 18.6654C244.741 17.4983 243.795 16.5479 242.595 16.5479C241.395 16.5479 240.448 17.4983 240.448 18.6654Z" fill="#2C2C2C"/>
<path d="M23.5 61.0109V52.2379H28.769V53.1896H24.5382V56.2697H28.384V57.2214H24.5382V61.0066H23.5V61.0109Z" fill="#2C2C2C"/>
<path d="M32.6926 61.1839C31.2564 61.1839 30.4647 60.1197 30.4647 58.809V55.0844H31.4554V58.6489C31.4554 59.5141 31.862 60.2928 32.9132 60.2928C33.8908 60.2928 34.4229 59.6006 34.4229 58.6619V55.0844H35.4136V59.8948C35.4136 60.3533 35.4525 60.773 35.4871 61.0066H34.5354C34.4965 60.8725 34.4748 60.548 34.4748 60.2538V60.2063C34.1893 60.8119 33.4712 61.1839 32.6926 61.1839Z" fill="#2C2C2C"/>
<path d="M38.087 61.0109V52.0649H39.0776V61.0066H38.087V61.0109Z" fill="#2C2C2C"/>
<path d="M43.3084 61.0109H42.3177V55.9755H41.1541V55.0844H42.3177V53.9813C42.3177 52.6835 43.1353 52 44.1865 52C44.5456 52 44.7792 52.0735 44.8657 52.1255V52.9777C44.7792 52.9387 44.6191 52.8911 44.3336 52.8911C43.8491 52.8911 43.3084 53.1507 43.3084 54.0029V55.0801H44.8441V55.9712H43.3084V61.0109Z" fill="#2C2C2C"/>
<path d="M47.2925 52.0043C47.6992 52.0043 48.0366 52.3374 48.0366 52.7484C48.0366 53.1593 47.7035 53.4924 47.2925 53.4924C46.8816 53.4924 46.5485 53.1593 46.5485 52.7484C46.5485 52.3374 46.8816 52.0043 47.2925 52.0043ZM46.795 61.0109V55.0844H47.7857V61.0109H46.795Z" fill="#2C2C2C"/>
<path d="M50.4591 61.0109V52.0649H51.4497V61.0066H50.4591V61.0109Z" fill="#2C2C2C"/>
<path d="M54.0583 61.0109V52.0649H55.0489V61.0066H54.0583V61.0109Z" fill="#2C2C2C"/>
<path d="M58.1549 52.0043C58.5615 52.0043 58.899 52.3374 58.899 52.7484C58.899 53.1593 58.5659 53.4924 58.1549 53.4924C57.7439 53.4924 57.4152 53.1593 57.4152 52.7484C57.4152 52.3374 57.7483 52.0043 58.1549 52.0043ZM57.6574 61.0109V55.0844H58.6481V61.0109H57.6574Z" fill="#2C2C2C"/>
<path d="M62.2472 61.0109H61.2566V55.0844H62.2213V55.9755C62.6063 55.2834 63.2984 54.9113 64.0771 54.9113C65.5003 54.9113 66.1925 55.9236 66.1925 57.2127V61.0109H65.2018V57.3598C65.2018 56.4946 64.8038 55.8025 63.731 55.8025C62.7793 55.8025 62.2472 56.5941 62.2472 57.5199V61.0109Z" fill="#2C2C2C"/>
<path d="M69.2768 61.1104C69.3763 61.9756 70.0295 62.6461 70.9942 62.6461C72.3785 62.6461 72.889 61.8285 72.889 60.6042V59.6525C72.6164 60.2236 71.9719 60.7513 71.0072 60.7513C69.4369 60.7513 68.3338 59.5011 68.3338 57.8443C68.3338 56.1875 69.4239 54.9113 71.0288 54.9113C71.9589 54.9113 72.5991 55.3439 72.8976 55.9236V55.0844H73.8753V60.5653C73.8753 62.0231 73.2091 63.5329 70.9942 63.5329C69.5321 63.5329 68.4722 62.5942 68.3208 61.344L69.2725 61.1104H69.2768ZM71.1326 55.8025C70.0555 55.8025 69.3287 56.6071 69.3287 57.8313C69.3287 59.0556 70.0598 59.8602 71.1326 59.8602C72.2055 59.8602 72.9366 59.0556 72.9366 57.8313C72.9366 56.6071 72.2055 55.8025 71.1326 55.8025Z" fill="#2C2C2C"/>
<path d="M88.7132 61.0109V53.8731L85.5336 61.0109H84.5819L81.4283 53.8731V61.0109H80.3901V52.2379H81.8133L85.0664 59.6223L88.3455 52.2379H89.7557V61.0066H88.7175L88.7132 61.0109Z" fill="#2C2C2C"/>
<path d="M97.6462 58.0433C97.6462 59.8732 96.383 61.1839 94.6786 61.1839C92.9742 61.1839 91.711 59.8732 91.711 58.0433C91.711 56.2134 92.9742 54.9157 94.6786 54.9157C96.383 54.9157 97.6462 56.2264 97.6462 58.0433ZM92.6973 58.0433C92.6973 59.4925 93.6144 60.2928 94.6786 60.2928C95.7428 60.2928 96.6599 59.4882 96.6599 58.0433C96.6599 56.5984 95.7428 55.8025 94.6786 55.8025C93.6144 55.8025 92.6973 56.6071 92.6973 58.0433Z" fill="#2C2C2C"/>
<path d="M100.441 55.9279C100.774 55.3093 101.492 54.9157 102.258 54.9157C103.075 54.9157 103.78 55.3483 104.074 56.1269C104.494 55.2877 105.238 54.9157 106.077 54.9157C107.155 54.9157 108.119 55.6554 108.119 57.1435V61.0152H107.129V57.256C107.129 56.4384 106.696 55.8068 105.766 55.8068C104.888 55.8068 104.295 56.5249 104.295 57.416V61.0152H103.304V57.256C103.304 56.4384 102.872 55.8068 101.933 55.8068C101.042 55.8068 100.462 56.499 100.462 57.429V61.0152H99.4717V55.0844H100.436V55.9236L100.441 55.9279Z" fill="#2C2C2C"/>
<path d="M115.633 59.3281C115.3 60.3533 114.37 61.1839 112.999 61.1839C111.416 61.1839 110.066 60.0202 110.066 58.0303C110.066 56.1615 111.377 54.9113 112.873 54.9113C114.669 54.9113 115.668 56.1615 115.668 57.9654C115.668 58.0909 115.655 58.225 115.642 58.3115H111.078V58.3591C111.078 59.4838 111.93 60.2885 112.995 60.2885C113.998 60.2885 114.539 59.7174 114.777 59.0123L115.629 59.3194L115.633 59.3281ZM114.643 57.4723C114.617 56.5336 114.011 55.7895 112.886 55.7895C111.861 55.7895 111.165 56.5941 111.104 57.4723H114.643Z" fill="#2C2C2C"/>
<path d="M118.713 61.0109H117.723V55.0844H118.687V55.9755C119.072 55.2834 119.765 54.9113 120.543 54.9113C121.966 54.9113 122.659 55.9236 122.659 57.2127V61.0109H121.668V57.3598C121.668 56.4946 121.27 55.8025 120.197 55.8025C119.245 55.8025 118.713 56.5941 118.713 57.5199V61.0109Z" fill="#2C2C2C"/>
<path d="M127.845 55.0844V55.9755H126.448V59.2546C126.448 59.8732 126.721 60.1803 127.352 60.1803C127.525 60.1803 127.75 60.1457 127.845 60.1197V60.959C127.733 60.9979 127.447 61.0714 127.067 61.0714C126.089 61.0714 125.457 60.4658 125.457 59.3887V55.9755H124.268V55.0844H124.653C125.258 55.0844 125.518 54.7383 125.518 54.1803V53.2026H126.444V55.0844H127.845Z" fill="#2C2C2C"/>
<path d="M130.48 59.1421C130.566 59.8213 131.073 60.3404 131.964 60.3404C132.669 60.3404 133.114 59.9424 133.114 59.4362C133.114 58.9907 132.755 58.6922 132.21 58.5711L131.246 58.3504C130.341 58.1385 129.775 57.5588 129.775 56.7066C129.775 55.716 130.713 54.9113 131.843 54.9113C133.378 54.9113 133.91 55.889 134.044 56.4946L133.166 56.8147C133.093 56.4081 132.781 55.7506 131.843 55.7506C131.224 55.7506 130.744 56.1486 130.744 56.6417C130.744 57.0613 131.003 57.3209 131.522 57.4463L132.487 57.6669C133.525 57.9005 134.096 58.5062 134.096 59.3843C134.096 60.2625 133.365 61.1796 131.955 61.1796C130.398 61.1796 129.693 60.189 129.593 59.4492L130.484 59.1421H130.48Z" fill="#2C2C2C"/>
<path d="M136.692 59.5401C137.163 59.5401 137.583 59.9121 137.583 60.6172C137.583 62.088 136.644 62.7802 135.887 62.9186V62.3389C136.493 62.2048 136.878 61.5862 136.878 61.0022C136.839 61.0282 136.744 61.0628 136.618 61.0628C136.212 61.0628 135.887 60.7773 135.887 60.3101C135.887 59.8905 136.22 59.5444 136.692 59.5444V59.5401Z" fill="#2C2C2C"/>
<path d="M143.67 61.0109V52.2379H148.926V53.1896H144.708V56.1442H148.541V57.0959H144.708V60.0505H148.926V61.0022H143.67V61.0109Z" fill="#2C2C2C"/>
<path d="M151.993 61.0109H151.002V55.0844H151.967V55.9755C152.352 55.2834 153.044 54.9113 153.822 54.9113C155.246 54.9113 155.938 55.9236 155.938 57.2127V61.0109H154.947V57.3598C154.947 56.4946 154.549 55.8025 153.476 55.8025C152.525 55.8025 151.993 56.5941 151.993 57.5199V61.0109Z" fill="#2C2C2C"/>
<path d="M161.471 56.101C161.311 56.0491 161.125 56.0404 160.952 56.0404C159.961 56.0404 159.282 56.6114 159.282 57.9438V61.0109H158.291V55.0844H159.256V56.1486C159.641 55.2834 160.394 54.9979 161.051 54.9979C161.211 54.9979 161.384 55.0238 161.471 55.0454V56.101Z" fill="#2C2C2C"/>
<path d="M163.638 52.0043C164.045 52.0043 164.382 52.3374 164.382 52.7484C164.382 53.1593 164.049 53.4924 163.638 53.4924C163.227 53.4924 162.898 53.1593 162.898 52.7484C162.898 52.3374 163.231 52.0043 163.638 52.0043ZM163.141 61.0109V55.0844H164.131V61.0109H163.141Z" fill="#2C2C2C"/>
<path d="M167.138 58.0433C167.138 59.4665 168.042 60.2928 169.093 60.2928C170.218 60.2928 170.689 59.5011 170.862 58.9561L171.727 59.3411C171.442 60.2192 170.616 61.1839 169.093 61.1839C167.384 61.1839 166.147 59.8472 166.147 58.0433C166.147 56.2394 167.41 54.9157 169.08 54.9157C170.603 54.9157 171.429 55.8414 171.676 56.7845L170.784 57.1695C170.624 56.5379 170.14 55.8068 169.076 55.8068C168.011 55.8068 167.133 56.6114 167.133 58.0476L167.138 58.0433Z" fill="#2C2C2C"/>
<path d="M174.621 61.0109H173.631V52.0649H174.621V55.876C175.007 55.2574 175.686 54.9113 176.451 54.9113C177.875 54.9113 178.567 55.9236 178.567 57.2127V61.0109H177.576V57.3598C177.576 56.4946 177.178 55.8025 176.105 55.8025C175.167 55.8025 174.621 56.5552 174.621 57.4723V61.0109Z" fill="#2C2C2C"/>
<path d="M181.413 52.0043C181.82 52.0043 182.157 52.3374 182.157 52.7484C182.157 53.1593 181.824 53.4924 181.413 53.4924C181.002 53.4924 180.669 53.1593 180.669 52.7484C180.669 52.3374 181.002 52.0043 181.413 52.0043ZM180.92 61.0109V55.0844H181.911V61.0109H180.92Z" fill="#2C2C2C"/>
<path d="M185.324 61.0109H184.333V55.0844H185.298V55.9755C185.683 55.2834 186.375 54.9113 187.154 54.9113C188.577 54.9113 189.269 55.9236 189.269 57.2127V61.0109H188.278V57.3598C188.278 56.4946 187.88 55.8025 186.808 55.8025C185.856 55.8025 185.324 56.5941 185.324 57.5199V61.0109Z" fill="#2C2C2C"/>
<path d="M192.167 61.1104C192.267 61.9756 192.92 62.6461 193.885 62.6461C195.269 62.6461 195.78 61.8285 195.78 60.6042V59.6525C195.507 60.2236 194.862 60.7513 193.898 60.7513C192.327 60.7513 191.224 59.5011 191.224 57.8443C191.224 56.1875 192.314 54.9113 193.919 54.9113C194.849 54.9113 195.49 55.3439 195.788 55.9236V55.0844H196.766V60.5653C196.766 62.0231 196.1 63.5329 193.885 63.5329C192.423 63.5329 191.363 62.5942 191.211 61.344L192.163 61.1104H192.167ZM194.023 55.8025C192.946 55.8025 192.219 56.6071 192.219 57.8313C192.219 59.0556 192.95 59.8602 194.023 59.8602C195.096 59.8602 195.827 59.0556 195.827 57.8313C195.827 56.6071 195.096 55.8025 194.023 55.8025Z" fill="#2C2C2C"/>
<path d="M203.09 61.0109V52.2379H204.129V60.0549H208.385V61.0066H203.09V61.0109Z" fill="#2C2C2C"/>
<path d="M210.834 52.0043C211.24 52.0043 211.578 52.3374 211.578 52.7484C211.578 53.1593 211.245 53.4924 210.834 53.4924C210.423 53.4924 210.094 53.1593 210.094 52.7484C210.094 52.3374 210.427 52.0043 210.834 52.0043ZM210.341 61.0109V55.0844H211.331V61.0109H210.341Z" fill="#2C2C2C"/>
<path d="M215.19 61.0109H214.199V55.9755H213.036V55.0844H214.199V53.9813C214.199 52.6835 215.017 52 216.068 52C216.427 52 216.661 52.0735 216.747 52.1255V52.9777C216.661 52.9387 216.501 52.8911 216.215 52.8911C215.731 52.8911 215.19 53.1507 215.19 54.0029V55.0801H216.726V55.9712H215.19V61.0109Z" fill="#2C2C2C"/>
<path d="M223.465 59.3281C223.132 60.3533 222.202 61.1839 220.831 61.1839C219.248 61.1839 217.898 60.0202 217.898 58.0303C217.898 56.1615 219.209 54.9113 220.705 54.9113C222.501 54.9113 223.5 56.1615 223.5 57.9654C223.5 58.0909 223.487 58.225 223.474 58.3115H218.91V58.3591C218.91 59.4838 219.762 60.2885 220.827 60.2885C221.83 60.2885 222.371 59.7174 222.609 59.0123L223.461 59.3194L223.465 59.3281ZM222.475 57.4723C222.449 56.5336 221.843 55.7895 220.718 55.7895C219.693 55.7895 219.001 56.5941 218.936 57.4723H222.475Z" fill="#2C2C2C"/>
</svg>
