<svg width="138" height="24" viewBox="0 0 138 24" fill="none" xmlns="http://www.w3.org/2000/svg">
<g clip-path="url(#clip0_11070_25435)">
<path d="M64.9066 8.74414L62.4548 13.9405L60.0027 8.74414H58.578L51.7344 23.2477H53.1595L59.2743 10.2883L61.726 15.4846L58.0629 23.2477H59.4555L62.4223 16.9605L65.3891 23.2477H66.8463L63.1512 15.4163L65.5622 10.3057L71.6693 23.2477H73.1428L66.2991 8.74414H64.9066Z" fill="#5B6770"/>
<path d="M120.474 8.74414H119.109V23.2477H120.474V8.74414Z" fill="#5B6770"/>
<path d="M104.969 9.93325H110.107V23.2477H111.463V9.93325H116.709V8.74414H104.969V9.93325Z" fill="#5B6770"/>
<path d="M101.236 8.74414V21.1276L91.4458 8.74414H90.125V23.2477H91.4458V10.8643L101.236 23.2477H102.572V8.74414H101.236Z" fill="#5B6770"/>
<path d="M131.159 8.74414H129.734L122.891 23.2477H124.315L130.422 10.3057L134.264 18.447H128.006L127.451 19.6218H134.818L136.529 23.2477H138.003L131.159 8.74414Z" fill="#5B6770"/>
<path d="M75.5625 23.2478H86.7163V22.0439H76.8982V9.93329H86.7163V8.74414H75.5625V23.2478Z" fill="#5B6770"/>
<path d="M85.3817 15.0977H78.2344V16.2868H85.3817V15.0977Z" fill="#5B6770"/>
<path d="M43.0562 8.01953C38.5983 8.01953 34.9844 11.591 34.9844 15.9965C34.9844 20.4021 38.5983 23.9735 43.0562 23.9735C47.514 23.9735 51.1279 20.4021 51.1279 15.9965C51.1279 11.591 47.514 8.01953 43.0562 8.01953ZM43.0562 22.6682C39.4251 22.6682 36.4958 19.7117 36.4958 15.9965C36.4958 12.2813 39.4251 9.32475 43.0562 9.32475C46.6872 9.32475 49.6165 12.2813 49.6165 15.9965C49.6165 19.7117 46.6872 22.6682 43.0562 22.6682Z" fill="#5B6770"/>
<g clip-path="url(#clip1_11070_25435)">
<path d="M21.3035 0.0429688L17.1976 8.7451L13.0916 0.0429688H10.9965L0.046875 23.2487H2.14166L12.0199 2.31317L16.1267 11.0153L10.3539 23.2487H12.4013L17.1501 13.1846L21.8986 23.2487H24.0408L18.221 10.9144L22.2677 2.33816L32.1342 23.2487H34.3004L23.3508 0.0429688H21.3035Z" fill="url(#paint0_linear_11070_25435)"/>
</g>
</g>
<defs>
<linearGradient id="paint0_linear_11070_25435" x1="10.0181" y1="22.0416" x2="17.3789" y2="-1.25874" gradientUnits="userSpaceOnUse">
<stop stop-color="#0091DA"/>
<stop offset="0.132491" stop-color="#0096C7"/>
<stop offset="0.398302" stop-color="#00A497"/>
<stop offset="0.5" stop-color="#00AB84"/>
<stop offset="0.637797" stop-color="#40BB5A"/>
<stop offset="0.812837" stop-color="#8DCE2A"/>
<stop offset="0.938" stop-color="#BDDA0B"/>
<stop offset="1" stop-color="#D0DF00"/>
</linearGradient>
<clipPath id="clip0_11070_25435">
<rect width="138" height="24" fill="white"/>
</clipPath>
<clipPath id="clip1_11070_25435">
<rect width="34.511" height="23.276" fill="white"/>
</clipPath>
</defs>
</svg>
